<svg width="24" height="24" viewBox="0 0 24 24" fill="currentColor" xmlns="http://www.w3.org/2000/svg">
    <path
        d="M12 17.25C11.7775 17.25 11.56 17.316 11.375 17.4396C11.19 17.5632 11.0458 17.7389 10.9606 17.9445C10.8755 18.1501 10.8532 18.3763 10.8966 18.5945C10.94 18.8127 11.0472 19.0132 11.2045 19.1705C11.3618 19.3279 11.5623 19.435 11.7805 19.4784C11.9988 19.5218 12.225 19.4995 12.4305 19.4144C12.6361 19.3293 12.8118 19.1851 12.9354 19C13.059 18.815 13.125 18.5975 13.125 18.375C13.125 18.0767 13.0065 17.7905 12.7955 17.5795C12.5845 17.3686 12.2984 17.25 12 17.25ZM11.25 9.00003H12.75V15.75H11.25V9.00003Z"
        fill="currentColor" />
    <path
        d="M21.75 22.5H2.25001C2.1212 22.5 1.99459 22.4668 1.88235 22.4036C1.77012 22.3404 1.67605 22.2494 1.60921 22.1393C1.54237 22.0292 1.505 21.9037 1.50072 21.775C1.49644 21.6462 1.52538 21.5186 1.58476 21.4043L11.3348 2.65428C11.3981 2.53258 11.4936 2.4306 11.6109 2.35942C11.7282 2.28825 11.8628 2.25061 12 2.25061C12.1372 2.25061 12.2718 2.28825 12.3891 2.35942C12.5064 2.4306 12.6019 2.53258 12.6653 2.65428L22.4153 21.4043C22.4746 21.5186 22.5036 21.6462 22.4993 21.775C22.495 21.9037 22.4576 22.0292 22.3908 22.1393C22.324 22.2494 22.2299 22.3404 22.1177 22.4036C22.0054 22.4668 21.8788 22.5 21.75 22.5ZM3.48751 21H20.5125L20.5133 20.9978L12.0015 4.62753H11.9985L3.486 20.9978L3.48751 21Z"
        fill="currentColor" />
</svg>